<svg height="24" width="24" xmlns="http://www.w3.org/2000/svg"><g transform="translate(0 -1028.4)"><path d="m2 1034.4c-1.1046 0-2 .9-2 2v2 8 2c0 1.1.89543 2 2 2h16 4c1.105 0 2-.9 2-2v-10-2c0-1.1-.895-2-2-2h-4-12z" fill="#c0392b"/><path d="m2 1031.4c-1.1046 0-2 .9-2 2v2 8 2c0 1.1.89543 2 2 2h16 4c1.105 0 2-.9 2-2v-10-2c0-1.1-.895-2-2-2h-4-12z" fill="#c0392b"/><path d="m2 1033.4c-1.1046 0-2 .9-2 2v2 8 2c0 1.1.89543 2 2 2h16 4c1.105 0 2-.9 2-2v-10-2c0-1.1-.895-2-2-2h-4-12z" fill="#e74c3c"/><path d="m17 13c0 3.314-2.686 6-6 6-3.3137 0-6-2.686-6-6 0-3.3137 2.6863-6 6-6 3.314 0 6 2.6863 6 6z" fill="#c0392b" transform="translate(1 1029.4)"/><path d="m17 13c0 3.314-2.686 6-6 6-3.3137 0-6-2.686-6-6 0-3.3137 2.6863-6 6-6 3.314 0 6 2.6863 6 6z" fill="#ecf0f1" transform="translate(1 1028.4)"/><path d="m15 12.5c0 1.933-1.343 3.5-3 3.5s-3-1.567-3-3.5 1.343-3.5 3-3.5 3 1.567 3 3.5z" fill="#34495e" transform="matrix(1.3333 0 0 1.1429 -4 1027.1)"/><path d="m15 12.5c0 1.933-1.343 3.5-3 3.5s-3-1.567-3-3.5 1.343-3.5 3-3.5 3 1.567 3 3.5z" fill="#2c3e50" transform="matrix(1 0 0 .85714 0 1030.6)"/><path d="m14 13c0 1.105-.895 2-2 2s-2-.895-2-2 .895-2 2-2 2 .895 2 2z" fill="#34495e" transform="translate(0 1028.4)"/><path d="m13 13c0 .552-.448 1-1 1s-1-.448-1-1 .448-1 1-1 1 .448 1 1z" fill="#3498db" transform="translate(0 1028.4)"/><path d="m25 12.5c0 .828-.672 1.5-1.5 1.5s-1.5-.672-1.5-1.5.672-1.5 1.5-1.5 1.5.672 1.5 1.5z" fill="#ecf0f1" transform="matrix(.66667 0 0 .66666 -4.6667 1031)"/><path d="m19 1036.4h3v1h-3z" fill="#ecf0f1"/><g fill="#c0392b"><path d="m19 1035.4h3v1h-3z"/><path d="m4 2c-1.1046 0-2 .8954-2 2h2 3 2c0-1.1046-.8954-2-2-2z" transform="translate(0 1028.4)"/></g></g></svg>